<svg width="71" height="71" viewBox="0 0 71 71" fill="none" xmlns="http://www.w3.org/2000/svg">
<path d="M28.2438 47.5984H19.2694L30.9134 19.1416H39.2062L50.8928 47.5984H41.5492L39.5328 42.3018H30.317L28.2438 47.5984ZM34.9178 29.0816L32.8162 35.784H36.9768L34.9178 29.0816Z" fill="#A42224"/>
<path d="M42.671 8.591L41.1232 1.917C41.0238 1.4768 40.6262 1.1502 40.1718 1.1502H30.9702C30.5158 1.1502 30.1182 1.4626 30.0046 1.9028L28.4568 8.5768C26.0286 9.2158 23.6998 10.1814 21.5272 11.4452L15.7194 7.8242C15.336 7.5828 14.8248 7.6396 14.5124 7.9662L8.0088 14.4698C7.6822 14.7964 7.6254 15.2934 7.8668 15.691L11.4878 21.4988C10.224 23.6714 9.2584 26.0002 8.6194 28.4284L1.9454 29.9762C1.5052 30.0756 1.1786 30.4732 1.1786 30.9276V40.1292C1.1786 40.5836 1.491 40.9812 1.9454 41.0806L8.6194 42.6284C9.2584 45.0566 10.224 47.3854 11.4878 49.558L7.8668 55.3658C7.6254 55.7492 7.6822 56.2604 8.0088 56.5728L14.5124 63.0764C14.839 63.403 15.336 63.4598 15.7336 63.2184L21.5414 59.5974C21.5556 59.6116 23.4868 55.0676 23.4868 55.0676C16.8696 51.0632 12.4392 43.7928 12.4392 35.5C12.4392 22.8762 22.6774 12.638 35.3012 12.638C37.1756 12.638 39.0074 12.8652 40.754 13.2912C40.7398 13.3338 42.6852 8.591 42.671 8.591Z" fill="#A42224"/>
<path d="M30.459 57.936L28.4994 62.622L30.0188 69.1824C30.1182 69.6226 30.5158 69.9492 30.9702 69.9492H40.1718C40.6262 69.9492 41.0238 69.6368 41.1374 69.1824L42.6852 62.5084C45.1134 61.8694 47.4422 60.9038 49.6148 59.64L55.4226 63.261C55.806 63.5024 56.3172 63.4456 56.6296 63.119L63.1332 56.6154C63.4598 56.2888 63.5166 55.7918 63.2752 55.3942L59.6542 49.5864C60.918 47.4138 61.8836 45.085 62.5226 42.6568L69.1966 41.109C69.6368 41.0096 69.9634 40.612 69.9634 40.1576V30.9418C69.9634 30.4874 69.651 30.0898 69.1966 29.9904L62.5226 28.4426C61.8836 26.0144 60.918 23.6856 59.6542 21.513L63.2752 15.7052C63.5166 15.3218 63.4598 14.8106 63.1332 14.4982L56.6296 7.9946C56.303 7.668 55.806 7.6112 55.4084 7.8526L49.6006 11.4736C49.5722 11.4594 47.4848 16.2164 47.4848 16.2164C53.889 20.2634 58.1348 27.406 58.1348 35.5426C58.1348 48.1664 47.8966 58.4046 35.2728 58.4046" fill="#CD5B28"/>
<path d="M39.2204 19.1558H35.0598C36.707 22.2798 37.6442 25.8298 37.6442 29.607C37.6442 31.6234 37.3744 33.5688 36.8774 35.429L36.991 35.8124H36.7638C36.0822 38.1696 35.0314 40.3564 33.6824 42.316H39.547L41.5634 47.6126H50.907L39.2204 19.1558Z" fill="#CD5B28"/>
</svg>
